# xmcd
#
# Track frame offsets: 
#        150
#        16200
#        31832
#        64462
#        81369
#        120810
#        135935
#        163227
#        176649
#        203571
#        233738
#        251278
#        281220
#        312676
#        331122
#
# Disc length: 4693 seconds
#
# Revision: 0
# Processed by: cddbd v1.5.2PL0 Copyright (c) Steve Scherf et al.
# Submitted via: ExactAudioCopy v1.0b3
#
DISCID=c712530f
DTITLE=Various Artist - Trance Charts Vol. 2 - CD 1
DYEAR=1900
DGENRE=
TTITLE0=R.E.D. S.E.C.T.O.R. - Invasion Over Berlin (Original Radio Mix
TTITLE0=)
TTITLE1=Beam and Yanou - Sound Of Love (Video Mix)
TTITLE2=Trance Action - Everlasting Dreams (Planet-Trax Mix)
TTITLE3=Tillmann Uhrmacher Feat. Peter Ries - Free (Radio Mix)
TTITLE4=Push - Till We Meet Again (Album Version)
TTITLE5=Bossi - To The Sky (Radio Edit)
TTITLE6=Phonetic - Atmosphere (Arne L II Mix)
TTITLE7=Killer K - Get On The Move (Original Radio)
TTITLE8=Sabrah Feat. Marvine G. - Fantasy (Vocal Club Mix)
TTITLE9=DJ Swam - The Spiritchaser (Clark Davis' Original Mix)
TTITLE10=Eddie Lock Vs. The Priest - Calling My Name
TTITLE11=DJ Arne L II Vs. Mirko Milano - Seven Of Nine (Borg Baby)
TTITLE12=DJ Overdog - No Limits! (DJ Overdog Mix)
TTITLE13=Ibiza Allstars - Colours Of Progressive
TTITLE14=Ibiza United Vs. K.K. Project - Wait A Minute (Hands Up!) (K.
TTITLE14=K.'s Play DJ Mix)
EXTD=
EXTT0=
EXTT1=
EXTT2=
EXTT3=
EXTT4=
EXTT5=
EXTT6=
EXTT7=
EXTT8=
EXTT9=
EXTT10=
EXTT11=
EXTT12=
EXTT13=
EXTT14=
PLAYORDER=
